<mxfile host="app.diagrams.net" modified="2023-10-17T21:49:39.252Z" agent="Mozilla/5.0 (Windows NT 10.0; Win64; x64) AppleWebKit/537.36 (KHTML, like Gecko) Chrome/118.0.0.0 Safari/537.36" etag="PGiVziR8lJqVmkEnYJH6" version="22.0.4" type="github">
  <diagram name="PÃ¡gina-1" id="wxAVN-ojPFp-bhJ8rfJf">
    <mxGraphModel dx="3585" dy="1955" grid="1" gridSize="10" guides="1" tooltips="1" connect="1" arrows="1" fold="1" page="1" pageScale="1" pageWidth="827" pageHeight="1169" math="0" shadow="0">
      <root>
        <mxCell id="0" />
        <mxCell id="1" parent="0" />
        <mxCell id="UFTTgIluC4Q-TY0QQpsT-1" value="Plato" style="whiteSpace=wrap;html=1;align=center;" parent="1" vertex="1">
          <mxGeometry x="430" y="394" width="100" height="40" as="geometry" />
        </mxCell>
        <mxCell id="UFTTgIluC4Q-TY0QQpsT-2" value="Menu" style="whiteSpace=wrap;html=1;align=center;" parent="1" vertex="1">
          <mxGeometry x="430" y="714" width="100" height="40" as="geometry" />
        </mxCell>
        <mxCell id="UFTTgIluC4Q-TY0QQpsT-3" value="ID" style="ellipse;whiteSpace=wrap;html=1;align=center;fontStyle=4;" parent="1" vertex="1">
          <mxGeometry x="370" y="294" width="100" height="40" as="geometry" />
        </mxCell>
        <mxCell id="UFTTgIluC4Q-TY0QQpsT-4" value="Nombre" style="ellipse;whiteSpace=wrap;html=1;align=center;" parent="1" vertex="1">
          <mxGeometry x="270" y="354" width="100" height="40" as="geometry" />
        </mxCell>
        <mxCell id="UFTTgIluC4Q-TY0QQpsT-5" value="Descripcion" style="ellipse;whiteSpace=wrap;html=1;align=center;" parent="1" vertex="1">
          <mxGeometry x="490" y="294" width="100" height="40" as="geometry" />
        </mxCell>
        <mxCell id="UFTTgIluC4Q-TY0QQpsT-6" value="ID" style="ellipse;whiteSpace=wrap;html=1;align=center;fontStyle=4;" parent="1" vertex="1">
          <mxGeometry x="430" y="834" width="100" height="40" as="geometry" />
        </mxCell>
        <mxCell id="UFTTgIluC4Q-TY0QQpsT-7" value="Cantidad&amp;nbsp;" style="ellipse;whiteSpace=wrap;html=1;align=center;" parent="1" vertex="1">
          <mxGeometry x="666" y="564" width="100" height="40" as="geometry" />
        </mxCell>
        <mxCell id="UFTTgIluC4Q-TY0QQpsT-8" value="Temperatura" style="ellipse;whiteSpace=wrap;html=1;align=center;" parent="1" vertex="1">
          <mxGeometry x="1079" y="809" width="100" height="40" as="geometry" />
        </mxCell>
        <mxCell id="UFTTgIluC4Q-TY0QQpsT-9" value="Tipo" style="ellipse;whiteSpace=wrap;html=1;align=center;" parent="1" vertex="1">
          <mxGeometry x="580" y="344" width="100" height="40" as="geometry" />
        </mxCell>
        <mxCell id="UFTTgIluC4Q-TY0QQpsT-10" value="Contar_personas" style="ellipse;whiteSpace=wrap;html=1;align=center;" parent="1" vertex="1">
          <mxGeometry x="540" y="834" width="100" height="40" as="geometry" />
        </mxCell>
        <mxCell id="UFTTgIluC4Q-TY0QQpsT-11" value="Componer" style="shape=rhombus;perimeter=rhombusPerimeter;whiteSpace=wrap;html=1;align=center;" parent="1" vertex="1">
          <mxGeometry x="420" y="544" width="120" height="60" as="geometry" />
        </mxCell>
        <mxCell id="UFTTgIluC4Q-TY0QQpsT-12" value="N, N" style="text;strokeColor=none;fillColor=none;spacingLeft=4;spacingRight=4;overflow=hidden;rotatable=0;points=[[0,0.5],[1,0.5]];portConstraint=eastwest;fontSize=12;whiteSpace=wrap;html=1;" parent="1" vertex="1">
          <mxGeometry x="460" y="454" width="40" height="30" as="geometry" />
        </mxCell>
        <mxCell id="UFTTgIluC4Q-TY0QQpsT-13" value="1, N" style="text;strokeColor=none;fillColor=none;spacingLeft=4;spacingRight=4;overflow=hidden;rotatable=0;points=[[0,0.5],[1,0.5]];portConstraint=eastwest;fontSize=12;whiteSpace=wrap;html=1;" parent="1" vertex="1">
          <mxGeometry x="460" y="664" width="40" height="30" as="geometry" />
        </mxCell>
        <mxCell id="UFTTgIluC4Q-TY0QQpsT-14" value="" style="endArrow=none;html=1;rounded=0;exitX=0.5;exitY=0;exitDx=0;exitDy=0;entryX=0.5;entryY=0.967;entryDx=0;entryDy=0;entryPerimeter=0;" parent="1" source="UFTTgIluC4Q-TY0QQpsT-2" target="UFTTgIluC4Q-TY0QQpsT-13" edge="1">
          <mxGeometry relative="1" as="geometry">
            <mxPoint x="800" y="714" as="sourcePoint" />
            <mxPoint x="960" y="714" as="targetPoint" />
          </mxGeometry>
        </mxCell>
        <mxCell id="UFTTgIluC4Q-TY0QQpsT-15" value="" style="endArrow=none;html=1;rounded=0;exitX=0.5;exitY=1;exitDx=0;exitDy=0;entryX=0.5;entryY=0;entryDx=0;entryDy=0;entryPerimeter=0;" parent="1" source="UFTTgIluC4Q-TY0QQpsT-11" target="UFTTgIluC4Q-TY0QQpsT-13" edge="1">
          <mxGeometry relative="1" as="geometry">
            <mxPoint x="800" y="714" as="sourcePoint" />
            <mxPoint x="960" y="714" as="targetPoint" />
          </mxGeometry>
        </mxCell>
        <mxCell id="UFTTgIluC4Q-TY0QQpsT-16" value="" style="endArrow=none;html=1;rounded=0;exitX=0.5;exitY=0;exitDx=0;exitDy=0;entryX=0.5;entryY=1.067;entryDx=0;entryDy=0;entryPerimeter=0;" parent="1" source="UFTTgIluC4Q-TY0QQpsT-11" target="UFTTgIluC4Q-TY0QQpsT-12" edge="1">
          <mxGeometry relative="1" as="geometry">
            <mxPoint x="810" y="724" as="sourcePoint" />
            <mxPoint x="970" y="724" as="targetPoint" />
          </mxGeometry>
        </mxCell>
        <mxCell id="UFTTgIluC4Q-TY0QQpsT-17" value="" style="endArrow=none;html=1;rounded=0;exitX=0.5;exitY=1;exitDx=0;exitDy=0;entryX=0.5;entryY=0;entryDx=0;entryDy=0;entryPerimeter=0;" parent="1" source="UFTTgIluC4Q-TY0QQpsT-1" target="UFTTgIluC4Q-TY0QQpsT-12" edge="1">
          <mxGeometry relative="1" as="geometry">
            <mxPoint x="820" y="734" as="sourcePoint" />
            <mxPoint x="980" y="734" as="targetPoint" />
          </mxGeometry>
        </mxCell>
        <mxCell id="UFTTgIluC4Q-TY0QQpsT-18" value="Ofrecer" style="shape=rhombus;perimeter=rhombusPerimeter;whiteSpace=wrap;html=1;align=center;" parent="1" vertex="1">
          <mxGeometry x="656" y="704" width="120" height="60" as="geometry" />
        </mxCell>
        <mxCell id="UFTTgIluC4Q-TY0QQpsT-20" value="0, N" style="text;strokeColor=none;fillColor=none;spacingLeft=4;spacingRight=4;overflow=hidden;rotatable=0;points=[[0,0.5],[1,0.5]];portConstraint=eastwest;fontSize=12;whiteSpace=wrap;html=1;" parent="1" vertex="1">
          <mxGeometry x="570" y="719" width="40" height="30" as="geometry" />
        </mxCell>
        <mxCell id="UFTTgIluC4Q-TY0QQpsT-21" value="" style="endArrow=none;html=1;rounded=0;exitX=1;exitY=0.5;exitDx=0;exitDy=0;entryX=0;entryY=0.5;entryDx=0;entryDy=0;" parent="1" source="UFTTgIluC4Q-TY0QQpsT-2" target="UFTTgIluC4Q-TY0QQpsT-20" edge="1">
          <mxGeometry relative="1" as="geometry">
            <mxPoint x="800" y="714" as="sourcePoint" />
            <mxPoint x="960" y="714" as="targetPoint" />
          </mxGeometry>
        </mxCell>
        <mxCell id="UFTTgIluC4Q-TY0QQpsT-22" value="" style="endArrow=none;html=1;rounded=0;exitX=1;exitY=0.5;exitDx=0;exitDy=0;entryX=0;entryY=0.5;entryDx=0;entryDy=0;" parent="1" source="UFTTgIluC4Q-TY0QQpsT-20" target="UFTTgIluC4Q-TY0QQpsT-18" edge="1">
          <mxGeometry relative="1" as="geometry">
            <mxPoint x="540" y="744" as="sourcePoint" />
            <mxPoint x="580" y="744" as="targetPoint" />
          </mxGeometry>
        </mxCell>
        <mxCell id="UFTTgIluC4Q-TY0QQpsT-24" value="" style="endArrow=none;html=1;rounded=0;exitX=0.5;exitY=1;exitDx=0;exitDy=0;entryX=0.25;entryY=0;entryDx=0;entryDy=0;" parent="1" source="UFTTgIluC4Q-TY0QQpsT-3" target="UFTTgIluC4Q-TY0QQpsT-1" edge="1">
          <mxGeometry relative="1" as="geometry">
            <mxPoint x="500" y="564" as="sourcePoint" />
            <mxPoint x="660" y="564" as="targetPoint" />
          </mxGeometry>
        </mxCell>
        <mxCell id="UFTTgIluC4Q-TY0QQpsT-25" value="" style="endArrow=none;html=1;rounded=0;exitX=0.5;exitY=1;exitDx=0;exitDy=0;entryX=0.75;entryY=0;entryDx=0;entryDy=0;" parent="1" source="UFTTgIluC4Q-TY0QQpsT-5" target="UFTTgIluC4Q-TY0QQpsT-1" edge="1">
          <mxGeometry relative="1" as="geometry">
            <mxPoint x="430" y="344" as="sourcePoint" />
            <mxPoint x="465" y="404" as="targetPoint" />
          </mxGeometry>
        </mxCell>
        <mxCell id="UFTTgIluC4Q-TY0QQpsT-26" value="" style="endArrow=none;html=1;rounded=0;exitX=1;exitY=0.5;exitDx=0;exitDy=0;entryX=0;entryY=0.5;entryDx=0;entryDy=0;" parent="1" source="UFTTgIluC4Q-TY0QQpsT-4" target="UFTTgIluC4Q-TY0QQpsT-1" edge="1">
          <mxGeometry relative="1" as="geometry">
            <mxPoint x="440" y="354" as="sourcePoint" />
            <mxPoint x="475" y="414" as="targetPoint" />
          </mxGeometry>
        </mxCell>
        <mxCell id="UFTTgIluC4Q-TY0QQpsT-27" value="" style="endArrow=none;html=1;rounded=0;exitX=0;exitY=0.5;exitDx=0;exitDy=0;entryX=1;entryY=0.5;entryDx=0;entryDy=0;" parent="1" source="UFTTgIluC4Q-TY0QQpsT-9" target="UFTTgIluC4Q-TY0QQpsT-1" edge="1">
          <mxGeometry relative="1" as="geometry">
            <mxPoint x="450" y="364" as="sourcePoint" />
            <mxPoint x="485" y="424" as="targetPoint" />
          </mxGeometry>
        </mxCell>
        <mxCell id="UFTTgIluC4Q-TY0QQpsT-28" value="" style="endArrow=none;html=1;rounded=0;exitX=0.5;exitY=0;exitDx=0;exitDy=0;entryX=0.5;entryY=1;entryDx=0;entryDy=0;" parent="1" source="UFTTgIluC4Q-TY0QQpsT-6" target="UFTTgIluC4Q-TY0QQpsT-2" edge="1">
          <mxGeometry relative="1" as="geometry">
            <mxPoint x="500" y="664" as="sourcePoint" />
            <mxPoint x="660" y="664" as="targetPoint" />
          </mxGeometry>
        </mxCell>
        <mxCell id="UFTTgIluC4Q-TY0QQpsT-29" value="" style="endArrow=none;html=1;rounded=0;exitX=0;exitY=0;exitDx=0;exitDy=0;entryX=1;entryY=1;entryDx=0;entryDy=0;" parent="1" source="UFTTgIluC4Q-TY0QQpsT-8" target="ToJzEdavTBDYWaMeYT04-3" edge="1">
          <mxGeometry relative="1" as="geometry">
            <mxPoint x="373" y="839" as="sourcePoint" />
            <mxPoint x="649" y="819" as="targetPoint" />
          </mxGeometry>
        </mxCell>
        <mxCell id="UFTTgIluC4Q-TY0QQpsT-30" value="" style="endArrow=none;html=1;rounded=0;exitX=0.5;exitY=0;exitDx=0;exitDy=0;entryX=1;entryY=1;entryDx=0;entryDy=0;" parent="1" source="UFTTgIluC4Q-TY0QQpsT-10" target="UFTTgIluC4Q-TY0QQpsT-2" edge="1">
          <mxGeometry relative="1" as="geometry">
            <mxPoint x="500" y="854" as="sourcePoint" />
            <mxPoint x="500" y="774" as="targetPoint" />
          </mxGeometry>
        </mxCell>
        <mxCell id="UFTTgIluC4Q-TY0QQpsT-31" value="Fecha" style="ellipse;whiteSpace=wrap;html=1;align=center;" parent="1" vertex="1">
          <mxGeometry x="1079" y="619" width="100" height="40" as="geometry" />
        </mxCell>
        <mxCell id="UFTTgIluC4Q-TY0QQpsT-32" value="" style="endArrow=none;html=1;rounded=0;exitX=0;exitY=0.5;exitDx=0;exitDy=0;entryX=1;entryY=0;entryDx=0;entryDy=0;" parent="1" source="UFTTgIluC4Q-TY0QQpsT-31" target="ToJzEdavTBDYWaMeYT04-3" edge="1">
          <mxGeometry relative="1" as="geometry">
            <mxPoint x="383" y="659" as="sourcePoint" />
            <mxPoint x="543" y="659" as="targetPoint" />
          </mxGeometry>
        </mxCell>
        <mxCell id="UFTTgIluC4Q-TY0QQpsT-33" value="" style="endArrow=none;html=1;rounded=0;exitX=0.5;exitY=1;exitDx=0;exitDy=0;entryX=0.5;entryY=0;entryDx=0;entryDy=0;" parent="1" source="UFTTgIluC4Q-TY0QQpsT-7" target="UFTTgIluC4Q-TY0QQpsT-18" edge="1">
          <mxGeometry relative="1" as="geometry">
            <mxPoint x="496" y="664" as="sourcePoint" />
            <mxPoint x="656" y="664" as="targetPoint" />
          </mxGeometry>
        </mxCell>
        <mxCell id="ToJzEdavTBDYWaMeYT04-1" value="&lt;b style=&quot;background-color: initial;&quot;&gt;Plato&lt;/b&gt;&lt;span style=&quot;background-color: initial;&quot;&gt;(&lt;b&gt;&lt;u&gt;ID&lt;/u&gt;&lt;/b&gt;: &lt;span style=&quot;color: rgb(80, 80, 80);&quot;&gt;int&lt;/span&gt;,&amp;nbsp;&lt;/span&gt;&lt;span style=&quot;background-color: initial;&quot;&gt;descripcio: &lt;/span&gt;&lt;span style=&quot;background-color: initial; color: rgb(80, 80, 80);&quot;&gt;varchar&lt;/span&gt;&lt;span style=&quot;background-color: initial;&quot;&gt;, nombre: &lt;/span&gt;&lt;span style=&quot;background-color: initial; color: rgb(80, 80, 80);&quot;&gt;varchar&lt;/span&gt;&lt;span style=&quot;background-color: initial;&quot;&gt;, tipo: &lt;/span&gt;&lt;span style=&quot;background-color: initial; color: rgb(80, 80, 80);&quot;&gt;varchar&lt;/span&gt;&lt;span style=&quot;background-color: initial;&quot;&gt;)&lt;/span&gt;&lt;span style=&quot;background-color: initial;&quot;&gt;&lt;br&gt;&lt;/span&gt;&lt;br&gt;&lt;b style=&quot;background-color: initial;&quot;&gt;Menu&lt;/b&gt;&lt;span style=&quot;background-color: initial;&quot;&gt;(&lt;b&gt;&lt;u&gt;ID&lt;/u&gt;&lt;/b&gt;: &lt;span style=&quot;color: rgb(80, 80, 80);&quot;&gt;int&lt;/span&gt;,&amp;nbsp;&lt;/span&gt;&lt;span style=&quot;background-color: initial;&quot;&gt;contarPersonas: &lt;/span&gt;&lt;span style=&quot;background-color: initial; color: rgb(80, 80, 80);&quot;&gt;int&lt;/span&gt;&lt;span style=&quot;background-color: initial;&quot;&gt;)&lt;/span&gt;&lt;span style=&quot;background-color: initial;&quot;&gt;&lt;br&gt;&lt;/span&gt;&lt;br&gt;&lt;b style=&quot;background-color: initial;&quot;&gt;Componer&lt;/b&gt;&lt;span style=&quot;background-color: initial;&quot;&gt;(&lt;b&gt;&lt;u&gt;IDPlato&lt;/u&gt;&lt;/b&gt;: &lt;b&gt;[REF_Plato ID]&lt;/b&gt;, &lt;b&gt;&lt;u&gt;IDMenu&lt;/u&gt;&lt;/b&gt;:&lt;b&gt;[REF_Menu&amp;nbsp;&lt;/b&gt;&lt;/span&gt;&lt;b style=&quot;background-color: initial;&quot;&gt;ID]&lt;/b&gt;&lt;span style=&quot;background-color: initial;&quot;&gt;)&lt;/span&gt;&lt;span style=&quot;background-color: initial;&quot;&gt;&lt;b&gt;&lt;br&gt;&lt;/b&gt;&lt;/span&gt;&lt;br&gt;&lt;b style=&quot;background-color: initial;&quot;&gt;Dia&lt;/b&gt;&lt;span style=&quot;background-color: initial;&quot;&gt;(&lt;b&gt;&lt;u&gt;ID&lt;/u&gt;&lt;/b&gt;: &lt;span style=&quot;color: rgb(80, 80, 80);&quot;&gt;int&lt;/span&gt;,&amp;nbsp;&lt;/span&gt;&lt;span style=&quot;background-color: initial;&quot;&gt;fecha: &lt;/span&gt;&lt;span style=&quot;background-color: initial; color: rgb(80, 80, 80);&quot;&gt;date&lt;/span&gt;&lt;span style=&quot;background-color: initial;&quot;&gt;, temperatura: &lt;/span&gt;&lt;span style=&quot;background-color: initial; color: rgb(80, 80, 80);&quot;&gt;double&lt;/span&gt;&lt;span style=&quot;background-color: initial;&quot;&gt;)&lt;/span&gt;&lt;span style=&quot;background-color: initial;&quot;&gt;&lt;br&gt;&lt;/span&gt;&lt;br&gt;&lt;b style=&quot;background-color: initial;&quot;&gt;Ofrecer&lt;/b&gt;&lt;span style=&quot;background-color: initial;&quot;&gt;(&lt;b&gt;&lt;u&gt;IDMenu&lt;/u&gt;&lt;/b&gt;: &lt;b&gt;[REF_Menu ID]&lt;/b&gt;, &lt;b&gt;&lt;u&gt;IDDia&lt;/u&gt;&lt;/b&gt;:&lt;/span&gt;&lt;b style=&quot;background-color: initial;&quot;&gt;&amp;nbsp;[REF_Dia ID]&lt;/b&gt;&lt;span style=&quot;background-color: initial;&quot;&gt;, cantidad: &lt;/span&gt;&lt;span style=&quot;background-color: initial; color: rgb(80, 80, 80);&quot;&gt;int&lt;/span&gt;&lt;span style=&quot;background-color: initial;&quot;&gt;)&lt;/span&gt;&lt;span style=&quot;background-color: initial;&quot;&gt;&lt;br&gt;&lt;/span&gt;&lt;br&gt;&lt;br&gt;&lt;br&gt;&lt;br&gt;&lt;br&gt;" style="text;html=1;strokeColor=none;fillColor=#dbdbdb;align=left;verticalAlign=top;whiteSpace=wrap;rounded=0;fontSize=12;spacing=5;" vertex="1" parent="1">
          <mxGeometry x="846" y="374" width="420" height="160" as="geometry" />
        </mxCell>
        <mxCell id="ToJzEdavTBDYWaMeYT04-3" value="Dia" style="whiteSpace=wrap;html=1;align=center;" vertex="1" parent="1">
          <mxGeometry x="919" y="714" width="100" height="40" as="geometry" />
        </mxCell>
        <mxCell id="ToJzEdavTBDYWaMeYT04-4" value="ID" style="ellipse;whiteSpace=wrap;html=1;align=center;fontStyle=4;" vertex="1" parent="1">
          <mxGeometry x="1079" y="714" width="100" height="40" as="geometry" />
        </mxCell>
        <mxCell id="ToJzEdavTBDYWaMeYT04-5" value="" style="endArrow=none;html=1;rounded=0;exitX=0;exitY=0.5;exitDx=0;exitDy=0;entryX=1;entryY=0.5;entryDx=0;entryDy=0;" edge="1" parent="1" source="ToJzEdavTBDYWaMeYT04-4" target="ToJzEdavTBDYWaMeYT04-3">
          <mxGeometry relative="1" as="geometry">
            <mxPoint x="1089" y="659" as="sourcePoint" />
            <mxPoint x="1029" y="734" as="targetPoint" />
          </mxGeometry>
        </mxCell>
        <mxCell id="ToJzEdavTBDYWaMeYT04-6" value="0, N" style="text;strokeColor=none;fillColor=none;spacingLeft=4;spacingRight=4;overflow=hidden;rotatable=0;points=[[0,0.5],[1,0.5]];portConstraint=eastwest;fontSize=12;whiteSpace=wrap;html=1;" vertex="1" parent="1">
          <mxGeometry x="836" y="719" width="40" height="30" as="geometry" />
        </mxCell>
        <mxCell id="ToJzEdavTBDYWaMeYT04-7" value="" style="endArrow=none;html=1;rounded=0;exitX=0;exitY=0.5;exitDx=0;exitDy=0;entryX=1;entryY=0.5;entryDx=0;entryDy=0;" edge="1" parent="1" source="ToJzEdavTBDYWaMeYT04-6" target="UFTTgIluC4Q-TY0QQpsT-18">
          <mxGeometry relative="1" as="geometry">
            <mxPoint x="570" y="744" as="sourcePoint" />
            <mxPoint x="620" y="744" as="targetPoint" />
          </mxGeometry>
        </mxCell>
        <mxCell id="ToJzEdavTBDYWaMeYT04-8" value="" style="endArrow=none;html=1;rounded=0;exitX=1;exitY=0.5;exitDx=0;exitDy=0;entryX=0;entryY=0.5;entryDx=0;entryDy=0;" edge="1" parent="1" source="ToJzEdavTBDYWaMeYT04-6" target="ToJzEdavTBDYWaMeYT04-3">
          <mxGeometry relative="1" as="geometry">
            <mxPoint x="876" y="584" as="sourcePoint" />
            <mxPoint x="1036" y="584" as="targetPoint" />
          </mxGeometry>
        </mxCell>
      </root>
    </mxGraphModel>
  </diagram>
</mxfile>
